<svg width="500" height="400" viewBox="0 0 500 400" fill="none" xmlns="http://www.w3.org/2000/svg">
  <style>
    @keyframes float {
      0% { transform: translateY(0px); }
      50% { transform: translateY(-10px); }
      100% { transform: translateY(0px); }
    }
    @keyframes pulse {
      0% { opacity: 0.6; }
      50% { opacity: 1; }
      100% { opacity: 0.6; }
    }
    .float { animation: float 3s ease-in-out infinite; }
    .pulse { animation: pulse 2s ease-in-out infinite; }
  </style>
  
  <!-- Background -->
  <rect width="500" height="400" fill="#F9FAFB" rx="20" />
  
  <!-- Team Members Group -->
  <g class="float">
    <!-- Person 1 (Center) -->
    <circle cx="250" cy="150" r="50" fill="#E0E7FF" />
    <circle cx="250" cy="130" r="20" fill="#4F46E5" />
    <path d="M210 190C210 168.909 227.909 150 250 150C272.091 150 290 168.909 290 190" stroke="#4F46E5" stroke-width="4" />
    
    <!-- Person 2 (Left) -->
    <circle cx="170" cy="180" r="40" fill="#E0E7FF" />
    <circle cx="170" cy="165" r="15" fill="#818CF8" />
    <path d="M140 210C140 193.327 153.327 180 170 180C186.673 180 200 193.327 200 210" stroke="#818CF8" stroke-width="3" />
    
    <!-- Person 3 (Right) -->
    <circle cx="330" cy="180" r="40" fill="#E0E7FF" />
    <circle cx="330" cy="165" r="15" fill="#818CF8" />
    <path d="M300 210C300 193.327 313.327 180 330 180C346.673 180 360 193.327 360 210" stroke="#818CF8" stroke-width="3" />
  </g>
  
  <!-- Connection Lines -->
  <line x1="200" y1="150" x2="230" y2="150" stroke="#4F46E5" stroke-width="2" stroke-dasharray="4 4" />
  <line x1="270" y1="150" x2="300" y2="150" stroke="#4F46E5" stroke-width="2" stroke-dasharray="4 4" />
  
  <!-- Data Visualization Elements -->
  <g transform="translate(100, 250)">
    <!-- Bar Chart -->
    <rect x="0" y="0" width="15" height="60" fill="#4F46E5" rx="2" />
    <rect x="25" y="20" width="15" height="40" fill="#818CF8" rx="2" />
    <rect x="50" y="10" width="15" height="50" fill="#4F46E5" rx="2" />
    <rect x="75" y="30" width="15" height="30" fill="#818CF8" rx="2" />
  </g>
  
  <g transform="translate(300, 250)">
    <!-- Pie Chart -->
    <path d="M50 50 L50 0 A50 50 0 0 1 100 50 Z" fill="#4F46E5" />
    <path d="M50 50 L100 50 A50 50 0 0 1 50 100 Z" fill="#818CF8" />
    <path d="M50 50 L50 100 A50 50 0 0 1 0 50 Z" fill="#10B981" />
    <path d="M50 50 L0 50 A50 50 0 0 1 50 0 Z" fill="#E0E7FF" />
    <circle cx="50" cy="50" r="20" fill="white" />
  </g>
  
  <!-- Decorative Elements -->
  <circle cx="80" cy="80" r="5" fill="#10B981" class="pulse" />
  <circle cx="420" cy="100" r="7" fill="#10B981" class="pulse" />
  <circle cx="380" cy="320" r="6" fill="#10B981" class="pulse" />
  <circle cx="120" cy="340" r="8" fill="#10B981" class="pulse" />
</svg> 