<svg width="100" height="100" viewBox="0 0 100 100" fill="none" xmlns="http://www.w3.org/2000/svg">
  <circle cx="50" cy="50" r="50" fill="#E0E7FF" />
  
  <!-- Head -->
  <circle cx="50" cy="40" r="20" fill="#F3F4F6" />
  
  <!-- Hair -->
  <path d="M30 40C30 29.0589 38.9589 20 50 20C61.0411 20 70 29.0589 70 40" fill="#1F2937" />
  <path d="M30 40C30 35 35 30 40 30H60C65 30 70 35 70 40" fill="#1F2937" />
  
  <!-- Face -->
  <circle cx="42" cy="38" r="2" fill="#1F2937" />
  <circle cx="58" cy="38" r="2" fill="#1F2937" />
  <path d="M45 48C45 48 47 50 50 50C53 50 55 48 55 48" stroke="#1F2937" stroke-width="1.5" stroke-linecap="round" />
  
  <!-- Shoulders -->
  <path d="M30 70C30 59.0589 38.9589 50 50 50C61.0411 50 70 59.0589 70 70V100H30V70Z" fill="#4F46E5" />
  
  <!-- Collar -->
  <path d="M40 60L50 70L60 60" stroke="white" stroke-width="2" />
</svg> 