<?xml version="1.0" encoding="UTF-8"?>
<svg width="120" height="120" viewBox="0 0 120 120" fill="none" xmlns="http://www.w3.org/2000/svg">
  <!-- Background circle with gradient -->
  <circle cx="60" cy="60" r="55" fill="url(#paint0_linear)" />
  
  <!-- Generic service icon (gear and lightning) -->
  <path d="M60 30C43.43 30 30 43.43 30 60C30 76.57 43.43 90 60 90C76.57 90 90 76.57 90 60C90 43.43 76.57 30 60 30ZM60 84C46.75 84 36 73.25 36 60C36 46.75 46.75 36 60 36C73.25 36 84 46.75 84 60C84 73.25 73.25 84 60 84Z" fill="white"/>
  
  <!-- Lightning bolt -->
  <path d="M65 45H55L50 60H58L53 75L70 55H60L65 45Z" fill="#8A2BE2"/>
  
  <!-- Gradient definition -->
  <defs>
    <linearGradient id="paint0_linear" x1="15" y1="15" x2="105" y2="105" gradientUnits="userSpaceOnUse">
      <stop offset="0" stop-color="#1A1A1A" />
      <stop offset="1" stop-color="#320F50" />
    </linearGradient>
  </defs>
</svg> 