<svg width="300" height="200" viewBox="0 0 300 200" fill="none" xmlns="http://www.w3.org/2000/svg">
  <rect width="300" height="200" fill="#F3F4F6" rx="10" />
  
  <!-- Decorative Background -->
  <circle cx="150" cy="100" r="80" fill="#E0E7FF" />
  
  <!-- Code Window -->
  <g transform="translate(75, 50)">
    <!-- Window Frame -->
    <rect x="0" y="0" width="150" height="100" rx="5" fill="#1F2937" />
    
    <!-- Window Header -->
    <rect x="0" y="0" width="150" height="20" rx="5" fill="#374151" />
    <circle cx="10" cy="10" r="3" fill="#EF4444" />
    <circle cx="20" cy="10" r="3" fill="#F59E0B" />
    <circle cx="30" cy="10" r="3" fill="#10B981" />
    
    <!-- Code Lines -->
    <rect x="10" y="30" width="60" height="4" rx="2" fill="#818CF8" />
    <rect x="20" y="40" width="80" height="4" rx="2" fill="#4F46E5" />
    <rect x="20" y="50" width="70" height="4" rx="2" fill="#4F46E5" />
    <rect x="10" y="60" width="50" height="4" rx="2" fill="#818CF8" />
    <rect x="20" y="70" width="90" height="4" rx="2" fill="#4F46E5" />
    <rect x="20" y="80" width="60" height="4" rx="2" fill="#4F46E5" />
    
    <!-- Cursor -->
    <rect x="80" y="50" width="2" height="10" fill="#FFFFFF" />
  </g>
  
  <!-- Gear Icons -->
  <g transform="translate(60, 40)">
    <circle cx="0" cy="0" r="15" fill="#4F46E5" />
    <circle cx="0" cy="0" r="8" fill="#F3F4F6" />
    <path d="M0 -15 L2 -8 L-2 -8 Z" fill="#4F46E5" />
    <path d="M0 15 L2 8 L-2 8 Z" fill="#4F46E5" />
    <path d="M-15 0 L-8 2 L-8 -2 Z" fill="#4F46E5" />
    <path d="M15 0 L8 2 L8 -2 Z" fill="#4F46E5" />
    <path d="M-10.6 -10.6 L-5.7 -5.7 L-7.1 -4.3 Z" fill="#4F46E5" />
    <path d="M10.6 10.6 L5.7 5.7 L7.1 4.3 Z" fill="#4F46E5" />
    <path d="M-10.6 10.6 L-5.7 5.7 L-4.3 7.1 Z" fill="#4F46E5" />
    <path d="M10.6 -10.6 L5.7 -5.7 L4.3 -7.1 Z" fill="#4F46E5" />
  </g>
  
  <g transform="translate(240, 150)">
    <circle cx="0" cy="0" r="12" fill="#4F46E5" />
    <circle cx="0" cy="0" r="6" fill="#F3F4F6" />
    <path d="M0 -12 L1.5 -6 L-1.5 -6 Z" fill="#4F46E5" />
    <path d="M0 12 L1.5 6 L-1.5 6 Z" fill="#4F46E5" />
    <path d="M-12 0 L-6 1.5 L-6 -1.5 Z" fill="#4F46E5" />
    <path d="M12 0 L6 1.5 L6 -1.5 Z" fill="#4F46E5" />
    <path d="M-8.5 -8.5 L-4.5 -4.5 L-5.5 -3.5 Z" fill="#4F46E5" />
    <path d="M8.5 8.5 L4.5 4.5 L5.5 3.5 Z" fill="#4F46E5" />
    <path d="M-8.5 8.5 L-4.5 4.5 L-3.5 5.5 Z" fill="#4F46E5" />
    <path d="M8.5 -8.5 L4.5 -4.5 L3.5 -5.5 Z" fill="#4F46E5" />
  </g>
  
  <!-- Binary Code Background -->
  <text x="30" y="30" fill="#E5E7EB" font-family="monospace" font-size="8">10110101</text>
  <text x="220" y="40" fill="#E5E7EB" font-family="monospace" font-size="8">01001010</text>
  <text x="40" y="170" fill="#E5E7EB" font-family="monospace" font-size="8">11010010</text>
  <text x="210" y="180" fill="#E5E7EB" font-family="monospace" font-size="8">00101101</text>
</svg> 