<svg width="300" height="200" viewBox="0 0 300 200" fill="none" xmlns="http://www.w3.org/2000/svg">
  <rect width="300" height="200" fill="#F3F4F6" rx="10" />
  
  <!-- Decorative Background -->
  <circle cx="150" cy="100" r="80" fill="#E0E7FF" />
  
  <!-- Virtual Influencer Profile -->
  <g transform="translate(110, 50)">
    <!-- Profile Circle -->
    <circle cx="40" cy="40" r="30" fill="#4F46E5" />
    
    <!-- Virtual Person Silhouette -->
    <path d="M40 30 C45 30 48 25 48 20 C48 15 45 10 40 10 C35 10 32 15 32 20 C32 25 35 30 40 30 Z" fill="white" />
    <path d="M40 30 C30 30 20 40 20 50 C20 55 25 60 40 60 C55 60 60 55 60 50 C60 40 50 30 40 30 Z" fill="white" />
    
    <!-- AI Overlay -->
    <circle cx="40" cy="40" r="35" stroke="#4F46E5" stroke-width="2" stroke-dasharray="4 4" fill="none" />
    <text x="25" y="45" fill="#4F46E5" font-family="monospace" font-weight="bold" font-size="10">AI</text>
  </g>
  
  <!-- Social Media Elements -->
  <g transform="translate(80, 70)">
    <!-- Like Icon -->
    <g transform="translate(0, 60)">
      <circle cx="15" cy="15" r="15" fill="#818CF8" />
      <path d="M15 7 L18 13 L25 14 L20 19 L21 26 L15 23 L9 26 L10 19 L5 14 L12 13 Z" fill="white" />
    </g>
    
    <!-- Comment Icon -->
    <g transform="translate(40, 70)">
      <circle cx="15" cy="15" r="15" fill="#818CF8" />
      <path d="M8 10 H22 V18 H15 L10 23 V18 H8 V10 Z" fill="white" />
    </g>
    
    <!-- Share Icon -->
    <g transform="translate(80, 60)">
      <circle cx="15" cy="15" r="15" fill="#818CF8" />
      <path d="M20 8 C22 8 24 10 24 12 C24 14 22 16 20 16 L18 16 L18 14 L20 14 C21 14 22 13 22 12 C22 11 21 10 20 10 L12 10 L12 8 L20 8 Z" fill="white" />
      <path d="M15 11 L15 21" stroke="white" stroke-width="2" />
      <path d="M11 16 L15 21 L19 16" stroke="white" stroke-width="2" />
    </g>
  </g>
  
  <!-- Data Analytics Elements -->
  <g transform="translate(180, 40)">
    <!-- Analytics Circle -->
    <circle cx="20" cy="20" r="15" fill="#4F46E5" />
    
    <!-- Chart Icon -->
    <path d="M13 25 L13 15 L17 15 L17 25 Z" fill="white" />
    <path d="M19 25 L19 12 L23 12 L23 25 Z" fill="white" />
    <path d="M25 25 L25 18 L29 18 L29 25 Z" fill="white" />
  </g>
  
  <!-- Personalization Elements -->
  <g transform="translate(60, 40)">
    <!-- Target Icon -->
    <circle cx="20" cy="20" r="15" fill="#4F46E5" />
    <circle cx="20" cy="20" r="10" stroke="white" stroke-width="2" fill="none" />
    <circle cx="20" cy="20" r="5" stroke="white" stroke-width="2" fill="none" />
    <circle cx="20" cy="20" r="2" fill="white" />
  </g>
  
  <!-- Connection Lines -->
  <line x1="80" y1="60" x2="110" y2="80" stroke="#4F46E5" stroke-width="1" />
  <line x1="200" y1="60" x2="170" y2="80" stroke="#4F46E5" stroke-width="1" />
  <line x1="150" y1="120" x2="135" y2="145" stroke="#4F46E5" stroke-width="1" />
  <line x1="150" y1="120" x2="175" y2="145" stroke="#4F46E5" stroke-width="1" />
  
  <!-- Pulse Circles -->
  <circle cx="150" cy="100" r="90" stroke="#4F46E5" stroke-width="1" stroke-dasharray="4 4" />
  <circle cx="150" cy="100" r="100" stroke="#4F46E5" stroke-width="1" stroke-dasharray="4 4" />
</svg> 