<svg width="300" height="200" viewBox="0 0 300 200" fill="none" xmlns="http://www.w3.org/2000/svg">
  <rect width="300" height="200" fill="#F3F4F6" rx="10" />
  
  <!-- Decorative Background -->
  <circle cx="150" cy="100" r="80" fill="#E0E7FF" />
  
  <!-- Website Builder Elements -->
  <g transform="translate(75, 40)">
    <!-- Website Frame -->
    <rect x="0" y="0" width="150" height="120" rx="5" fill="white" stroke="#E5E7EB" stroke-width="2" />
    
    <!-- Website Header -->
    <rect x="0" y="0" width="150" height="20" rx="5" fill="#4F46E5" />
    <circle cx="10" cy="10" r="3" fill="#FFFFFF" />
    <circle cx="20" cy="10" r="3" fill="#FFFFFF" />
    <circle cx="30" cy="10" r="3" fill="#FFFFFF" />
    
    <!-- Website Navigation -->
    <rect x="10" y="30" width="20" height="5" rx="2" fill="#4F46E5" />
    <rect x="40" y="30" width="20" height="5" rx="2" fill="#4F46E5" />
    <rect x="70" y="30" width="20" height="5" rx="2" fill="#4F46E5" />
    <rect x="100" y="30" width="20" height="5" rx="2" fill="#4F46E5" />
    
    <!-- Hero Section -->
    <rect x="10" y="45" width="130" height="30" rx="2" fill="#E0E7FF" />
    <rect x="20" y="50" width="60" height="5" rx="2" fill="#4F46E5" />
    <rect x="20" y="60" width="40" height="5" rx="2" fill="#4F46E5" />
    <rect x="100" y="50" width="20" height="20" rx="2" fill="#818CF8" />
    
    <!-- Content Sections -->
    <rect x="10" y="85" width="40" height="25" rx="2" fill="#E0E7FF" />
    <rect x="55" y="85" width="40" height="25" rx="2" fill="#E0E7FF" />
    <rect x="100" y="85" width="40" height="25" rx="2" fill="#E0E7FF" />
    
    <!-- AI Design Elements -->
    <g transform="translate(15, 90)">
      <rect x="0" y="0" width="30" height="3" rx="1" fill="#4F46E5" />
      <rect x="0" y="6" width="20" height="3" rx="1" fill="#4F46E5" />
      <rect x="0" y="12" width="25" height="3" rx="1" fill="#4F46E5" />
    </g>
    
    <g transform="translate(60, 90)">
      <rect x="0" y="0" width="30" height="3" rx="1" fill="#4F46E5" />
      <rect x="0" y="6" width="20" height="3" rx="1" fill="#4F46E5" />
      <rect x="0" y="12" width="25" height="3" rx="1" fill="#4F46E5" />
    </g>
    
    <g transform="translate(105, 90)">
      <rect x="0" y="0" width="30" height="3" rx="1" fill="#4F46E5" />
      <rect x="0" y="6" width="20" height="3" rx="1" fill="#4F46E5" />
      <rect x="0" y="12" width="25" height="3" rx="1" fill="#4F46E5" />
    </g>
  </g>
  
  <!-- AI Design Tools -->
  <g transform="translate(50, 70)">
    <!-- Color Palette -->
    <circle cx="0" cy="0" r="15" fill="#4F46E5" />
    <path d="M-5 -5 A10 10 0 0 1 5 -5 L0 0 Z" fill="#F59E0B" />
    <path d="M5 -5 A10 10 0 0 1 5 5 L0 0 Z" fill="#10B981" />
    <path d="M5 5 A10 10 0 0 1 -5 5 L0 0 Z" fill="#EF4444" />
    <path d="M-5 5 A10 10 0 0 1 -5 -5 L0 0 Z" fill="#818CF8" />
    <circle cx="0" cy="0" r="3" fill="white" />
  </g>
  
  <g transform="translate(230, 70)">
    <!-- Layout Grid -->
    <circle cx="0" cy="0" r="15" fill="#4F46E5" />
    <rect x="-8" y="-8" width="5" height="5" fill="white" />
    <rect x="-8" y="-1" width="5" height="5" fill="white" />
    <rect x="-8" y="6" width="5" height="5" fill="white" />
    <rect x="-1" y="-8" width="5" height="5" fill="white" />
    <rect x="-1" y="-1" width="5" height="5" fill="white" />
    <rect x="-1" y="6" width="5" height="5" fill="white" />
    <rect x="6" y="-8" width="5" height="5" fill="white" />
    <rect x="6" y="-1" width="5" height="5" fill="white" />
    <rect x="6" y="6" width="5" height="5" fill="white" />
  </g>
  
  <!-- AI Magic Wand -->
  <g transform="translate(50, 150)">
    <circle cx="0" cy="0" r="15" fill="#4F46E5" />
    <path d="M-5 -5 L5 5 M-5 5 L5 -5" stroke="white" stroke-width="2" />
    <circle cx="0" cy="0" r="3" fill="white" />
  </g>
  
  <!-- SEO Elements -->
  <g transform="translate(230, 150)">
    <circle cx="0" cy="0" r="15" fill="#4F46E5" />
    <text x="-10" y="5" fill="white" font-family="monospace" font-weight="bold" font-size="10">SEO</text>
  </g>
  
  <!-- Connection Lines -->
  <line x1="65" y1="70" x2="90" y2="80" stroke="#4F46E5" stroke-width="1" stroke-dasharray="2 2" />
  <line x1="215" y1="70" x2="190" y2="80" stroke="#4F46E5" stroke-width="1" stroke-dasharray="2 2" />
  <line x1="65" y1="150" x2="90" y2="140" stroke="#4F46E5" stroke-width="1" stroke-dasharray="2 2" />
  <line x1="215" y1="150" x2="190" y2="140" stroke="#4F46E5" stroke-width="1" stroke-dasharray="2 2" />
  
  <!-- AI Pulse -->
  <circle cx="150" cy="100" r="90" stroke="#4F46E5" stroke-width="1" stroke-dasharray="4 4" />
  <circle cx="150" cy="100" r="100" stroke="#4F46E5" stroke-width="1" stroke-dasharray="4 4" />
</svg> 