<svg width="300" height="200" viewBox="0 0 300 200" fill="none" xmlns="http://www.w3.org/2000/svg">
  <rect width="300" height="200" fill="#F3F4F6" rx="10" />
  
  <!-- Decorative Background -->
  <circle cx="150" cy="100" r="80" fill="#E0E7FF" />
  
  <!-- Chart Elements -->
  <g transform="translate(75, 50)">
    <!-- Chart Background -->
    <rect x="0" y="0" width="150" height="100" rx="5" fill="white" stroke="#E5E7EB" stroke-width="1" />
    
    <!-- Grid Lines -->
    <line x1="0" y1="25" x2="150" y2="25" stroke="#E5E7EB" stroke-width="1" stroke-dasharray="2 2" />
    <line x1="0" y1="50" x2="150" y2="50" stroke="#E5E7EB" stroke-width="1" stroke-dasharray="2 2" />
    <line x1="0" y1="75" x2="150" y2="75" stroke="#E5E7EB" stroke-width="1" stroke-dasharray="2 2" />
    <line x1="30" y1="0" x2="30" y2="100" stroke="#E5E7EB" stroke-width="1" stroke-dasharray="2 2" />
    <line x1="60" y1="0" x2="60" y2="100" stroke="#E5E7EB" stroke-width="1" stroke-dasharray="2 2" />
    <line x1="90" y1="0" x2="90" y2="100" stroke="#E5E7EB" stroke-width="1" stroke-dasharray="2 2" />
    <line x1="120" y1="0" x2="120" y2="100" stroke="#E5E7EB" stroke-width="1" stroke-dasharray="2 2" />
    
    <!-- X and Y Axis -->
    <line x1="0" y1="100" x2="150" y2="100" stroke="#1F2937" stroke-width="2" />
    <line x1="0" y1="0" x2="0" y2="100" stroke="#1F2937" stroke-width="2" />
    
    <!-- Data Line -->
    <path d="M0 80 L30 60 L60 70 L90 30 L120 40 L150 20" stroke="#4F46E5" stroke-width="3" stroke-linecap="round" stroke-linejoin="round" fill="none" />
    
    <!-- Data Points -->
    <circle cx="0" cy="80" r="4" fill="#4F46E5" />
    <circle cx="30" cy="60" r="4" fill="#4F46E5" />
    <circle cx="60" cy="70" r="4" fill="#4F46E5" />
    <circle cx="90" cy="30" r="4" fill="#4F46E5" />
    <circle cx="120" cy="40" r="4" fill="#4F46E5" />
    <circle cx="150" cy="20" r="4" fill="#4F46E5" />
    
    <!-- Area Under Curve -->
    <path d="M0 80 L30 60 L60 70 L90 30 L120 40 L150 20 L150 100 L0 100 Z" fill="#4F46E5" fill-opacity="0.2" />
  </g>
  
  <!-- Data Icons -->
  <g transform="translate(50, 40)">
    <circle cx="0" cy="0" r="15" fill="#10B981" />
    <rect x="-7" y="-7" width="14" height="2" fill="white" />
    <rect x="-7" y="-2" width="10" height="2" fill="white" />
    <rect x="-7" y="3" width="14" height="2" fill="white" />
    <rect x="-7" y="8" width="7" height="2" fill="white" />
  </g>
  
  <g transform="translate(240, 150)">
    <circle cx="0" cy="0" r="15" fill="#10B981" />
    <path d="M-5 -5 L5 -5 L5 5 L-5 5 Z" stroke="white" stroke-width="2" fill="none" />
    <line x1="-3" y1="0" x2="3" y2="0" stroke="white" stroke-width="2" />
    <line x1="0" y1="-3" x2="0" y2="3" stroke="white" stroke-width="2" />
  </g>
  
  <!-- Decorative Elements -->
  <circle cx="40" cy="160" r="5" fill="#4F46E5" opacity="0.5" />
  <circle cx="260" cy="40" r="5" fill="#4F46E5" opacity="0.5" />
  <circle cx="200" cy="170" r="3" fill="#4F46E5" opacity="0.5" />
  <circle cx="100" cy="30" r="3" fill="#4F46E5" opacity="0.5" />
  
  <!-- Small Bar Charts -->
  <g transform="translate(30, 120)">
    <rect x="0" y="0" width="5" height="15" fill="#818CF8" />
    <rect x="7" y="5" width="5" height="10" fill="#818CF8" />
    <rect x="14" y="0" width="5" height="15" fill="#818CF8" />
    <rect x="21" y="7" width="5" height="8" fill="#818CF8" />
  </g>
  
  <g transform="translate(240, 30)">
    <rect x="0" y="0" width="5" height="15" fill="#818CF8" />
    <rect x="7" y="5" width="5" height="10" fill="#818CF8" />
    <rect x="14" y="0" width="5" height="15" fill="#818CF8" />
    <rect x="21" y="7" width="5" height="8" fill="#818CF8" />
  </g>
</svg> 