<svg width="300" height="200" viewBox="0 0 300 200" fill="none" xmlns="http://www.w3.org/2000/svg">
  <rect width="300" height="200" fill="#F3F4F6" rx="10" />
  
  <!-- Decorative Background -->
  <circle cx="150" cy="100" r="80" fill="#E0E7FF" />
  
  <!-- Lightbulb Icon -->
  <g transform="translate(120, 60)">
    <!-- Bulb -->
    <path d="M30 60C46.5685 60 60 46.5685 60 30C60 13.4315 46.5685 0 30 0C13.4315 0 0 13.4315 0 30C0 46.5685 13.4315 60 30 60Z" fill="#4F46E5" />
    <path d="M30 50C41.0457 50 50 41.0457 50 30C50 18.9543 41.0457 10 30 10C18.9543 10 10 18.9543 10 30C10 41.0457 18.9543 50 30 50Z" fill="white" />
    
    <!-- Filament -->
    <path d="M25 20L30 10L35 20" stroke="#4F46E5" stroke-width="2" stroke-linecap="round" />
    
    <!-- Base -->
    <rect x="20" y="50" width="20" height="5" fill="#4F46E5" />
    <rect x="22" y="55" width="16" height="5" fill="#4F46E5" />
  </g>
  
  <!-- Brain Elements -->
  <g transform="translate(100, 70)">
    <circle cx="20" cy="20" r="5" fill="#818CF8" />
    <circle cx="50" cy="10" r="5" fill="#818CF8" />
    <circle cx="80" cy="30" r="5" fill="#818CF8" />
    <circle cx="40" cy="40" r="5" fill="#818CF8" />
    <circle cx="70" cy="50" r="5" fill="#818CF8" />
    
    <!-- Connections -->
    <line x1="20" y1="20" x2="50" y2="10" stroke="#4F46E5" stroke-width="1" />
    <line x1="50" y1="10" x2="80" y2="30" stroke="#4F46E5" stroke-width="1" />
    <line x1="20" y1="20" x2="40" y2="40" stroke="#4F46E5" stroke-width="1" />
    <line x1="40" y1="40" x2="70" y2="50" stroke="#4F46E5" stroke-width="1" />
    <line x1="50" y1="10" x2="40" y2="40" stroke="#4F46E5" stroke-width="1" />
    <line x1="80" y1="30" x2="70" y2="50" stroke="#4F46E5" stroke-width="1" />
  </g>
  
  <!-- Pulse Circles -->
  <circle cx="150" cy="100" r="90" stroke="#4F46E5" stroke-width="1" stroke-dasharray="4 4" />
  <circle cx="150" cy="100" r="100" stroke="#4F46E5" stroke-width="1" stroke-dasharray="4 4" />
</svg> 